<svg id="Layer_1" data-name="Layer 1" xmlns="http://www.w3.org/2000/svg" viewBox="0 0 76.04 64.22"><defs><style>.cls-1{fill:#e57373;}.cls-2{fill:#fff;}.cls-3{fill:#ef5350;}.cls-4{fill:#f44336;}.cls-5,.cls-6,.cls-7{fill:none;stroke-linecap:round;stroke-linejoin:round;stroke-width:2px;}.cls-5{stroke:#e57373;}.cls-6{stroke:#ffc107;}.cls-7{stroke:#2196f3;}</style></defs><title>recast-ai-youpi</title><path class="cls-1" d="M54.56,48.26h-31a1.16,1.16,0,0,1-1.18-1.18V23.44a1.19,1.19,0,0,1,1.18-1.18h31a1.19,1.19,0,0,1,1.18,1.18V47.08A1.19,1.19,0,0,1,54.56,48.26Z"/><circle class="cls-2" cx="33.87" cy="34.43" r="3.7"/><circle class="cls-2" cx="44.35" cy="34.43" r="3.7"/><path class="cls-3" d="M57.71,38.37H56.93a1.19,1.19,0,0,1-1.18-1.18v-8A1.19,1.19,0,0,1,56.93,28h0.79a1.19,1.19,0,0,1,1.18,1.18v7.92A1.22,1.22,0,0,1,57.71,38.37Z"/><path class="cls-3" d="M21.46,38.29H20.67a1.19,1.19,0,0,1-1.18-1.18V29.19A1.21,1.21,0,0,1,20.67,28h0.79a1.19,1.19,0,0,1,1.18,1.18v7.92A1.16,1.16,0,0,1,21.46,38.29Z"/><path class="cls-3" d="M46.88,50.63H31.31a1.19,1.19,0,0,1-1.18-1.18V49.09a1.19,1.19,0,0,1,1.18-1.18H46.88a1.16,1.16,0,0,1,1.18,1.18v0.35A1.16,1.16,0,0,1,46.88,50.63Z"/><path class="cls-4" d="M54.56,64.22h-31A1.16,1.16,0,0,1,22.4,63V51.54a1.16,1.16,0,0,1,1.18-1.18h31a1.16,1.16,0,0,1,1.18,1.18V63A1.21,1.21,0,0,1,54.56,64.22Z"/><circle class="cls-1" cx="33.87" cy="35.26" r="1.46"/><circle class="cls-1" cx="44.35" cy="35.26" r="1.46"/><rect class="cls-2" x="25.64" y="52.8" width="6.78" height="1.97"/><line class="cls-5" x1="51.16" y1="14.05" x2="52.26" y2="6.74"/><line class="cls-6" x1="64.64" y1="22.71" x2="70.55" y2="18.27"/><line class="cls-7" x1="41.46" y1="9.18" x2="41.73" y2="1.8"/><line class="cls-6" x1="30.29" y1="13.13" x2="28.99" y2="5.85"/><line class="cls-5" x1="17.77" y1="18.48" x2="13.43" y2="12.5"/><line class="cls-5" x1="68.15" y1="31.83" x2="75.04" y2="29.15"/><line class="cls-7" x1="64.71" y1="5.41" x2="61.92" y2="12.26"/><line class="cls-7" x1="16.38" y1="1" x2="18.81" y2="7.98"/><line class="cls-7" x1="2.57" y1="15.36" x2="8.06" y2="20.32"/><line class="cls-6" x1="8.19" y1="31.34" x2="1" y2="29.64"/></svg>